<svg width="100" height="100" viewBox="0 0 100 100" fill="none" xmlns="http://www.w3.org/2000/svg">
<path d="M47.7437 12.3019C51.8493 8.89438 56.6013 6.28107 61.8098 5.02672C61.9636 4.98948 62.1158 4.99117 62.2662 5.03179C63.5253 5.36697 64.7153 5.72922 65.8361 6.11856C68.477 7.03672 70.8179 8.35201 73.0745 9.95677C73.1857 10.0353 73.1731 10.0722 73.0369 10.0675C68.9696 9.92393 65.0799 10.297 61.3676 11.1867C56.2649 12.4089 51.6846 14.6079 47.6268 17.7835C41.1426 22.8568 36.418 30.0233 33.8798 37.9039C33.2421 39.8844 32.782 41.8674 32.4994 43.8527C32.3564 44.8561 32.3043 45.8339 32.3429 46.7859C32.3456 46.8387 32.3205 46.8668 32.2677 46.8702L31.8601 46.8976C31.8194 46.9003 31.7984 46.8814 31.797 46.8408C31.6208 42.3711 32.186 37.9855 33.4925 33.6838C36.0154 25.3827 41.0898 17.8272 47.7437 12.3019Z" fill="#00A9E0"/>
<path d="M35.6266 20.1882C32.4336 24.6357 30.3126 29.6098 29.2634 35.1105C26.1364 51.5056 33.4671 69.5304 48.255 77.8578C48.2958 77.8815 48.3163 77.9168 48.3163 77.9637V95.6739C48.3163 95.7364 48.2901 95.751 48.2377 95.7177C47.1845 95.0574 46.1704 94.3849 45.1954 93.7002C39.4483 89.6667 34.2346 85.1082 29.5543 80.0249C20.2621 69.9315 13.309 57.3656 13.009 43.4358C12.8797 37.4587 14.1499 31.8468 16.8197 26.5999C23.2901 13.8834 36.9217 6.22987 51.1963 7.43708C51.3276 7.44794 51.3334 7.48119 51.2136 7.53684C45.0158 10.4114 39.5823 14.6784 35.6266 20.1882Z" fill="#003DA5"/>
<path d="M85.9993 42.7765C85.9597 50.4459 83.4526 57.768 78.8127 63.8919C74.3321 69.8047 68.0931 74.0664 61.0882 76.2272C57.8508 77.2263 54.4024 77.7313 50.743 77.7422C50.6984 77.7422 50.6568 77.7307 50.6182 77.7076C50.2712 77.5018 49.9594 77.2866 49.6827 77.0618C43.7424 72.2346 39.7407 66.1319 37.6777 58.754C37.6755 58.7459 37.6752 58.7373 37.6768 58.7291C37.6785 58.7209 37.682 58.7131 37.687 58.7064C37.6921 58.6998 37.6987 58.6944 37.7062 58.6906C37.7137 58.6869 37.722 58.6849 37.7304 58.6849C41.9269 58.6788 46.1136 58.6802 50.2905 58.689C51.0494 58.6903 51.7235 58.6653 52.3126 58.6138C60.5981 57.8929 66.9963 50.8855 66.9588 42.5429C66.9223 34.3282 60.6732 27.4508 52.5115 26.6182C51.9474 26.5607 51.2794 26.5339 50.5076 26.538C48.8037 26.5468 47.0447 26.5481 45.2305 26.542C45.2236 26.5419 45.2168 26.5397 45.211 26.5358C45.2052 26.5319 45.2006 26.5264 45.1979 26.52C45.1951 26.5136 45.1942 26.5066 45.1953 26.4997C45.1964 26.4928 45.1995 26.4863 45.2042 26.4811C49.3851 21.7764 54.395 18.4127 60.2338 16.39C63.9606 15.0984 67.9227 14.4729 71.8412 14.5114C71.9197 14.5127 71.9962 14.5383 72.0603 14.5846C74.5692 16.4096 76.7899 18.6174 78.7224 21.2081C83.3613 27.4285 86.0389 35.0522 85.9993 42.7765Z" fill="#C8102E"/>
</svg>
